<svg width="1530" height="72" viewBox="0 0 1530 72" fill="none" xmlns="http://www.w3.org/2000/svg">
<rect width="1530" height="72" fill="white"/>
<path d="M208.539 29.672C207.451 29.672 206.486 29.912 205.643 30.392C204.811 30.872 204.16 31.544 203.691 32.408C203.222 33.2613 202.987 34.2373 202.987 35.336C202.987 36.4347 203.222 37.416 203.691 38.28C204.16 39.144 204.811 39.816 205.643 40.296C206.486 40.776 207.451 41.016 208.539 41.016C209.627 41.016 210.587 40.776 211.419 40.296C212.262 39.816 212.912 39.144 213.371 38.28C213.84 37.416 214.075 36.4347 214.075 35.336C214.075 34.2373 213.84 33.2613 213.371 32.408C212.912 31.544 212.262 30.872 211.419 30.392C210.587 29.912 209.627 29.672 208.539 29.672ZM208.539 30.216C209.531 30.216 210.4 30.4347 211.147 30.872C211.894 31.2987 212.47 31.9013 212.875 32.68C213.28 33.4587 213.483 34.344 213.483 35.336C213.483 36.328 213.28 37.2133 212.875 37.992C212.47 38.76 211.894 39.3627 211.147 39.8C210.4 40.2373 209.531 40.456 208.539 40.456C207.547 40.456 206.678 40.2373 205.931 39.8C205.184 39.3627 204.608 38.76 204.203 37.992C203.798 37.2133 203.595 36.328 203.595 35.336C203.595 34.344 203.798 33.4587 204.203 32.68C204.608 31.9013 205.184 31.2987 205.931 30.872C206.678 30.4347 207.547 30.216 208.539 30.216ZM208.603 31.624C209.392 31.624 210.091 31.8587 210.699 32.328C211.307 32.7867 211.707 33.4267 211.899 34.248H210.635C210.475 33.7467 210.203 33.3573 209.819 33.08C209.446 32.8027 209.019 32.664 208.539 32.664C207.91 32.664 207.376 32.8987 206.939 33.368C206.502 33.8267 206.283 34.488 206.283 35.352C206.283 35.9173 206.384 36.4027 206.587 36.808C206.8 37.2133 207.078 37.5173 207.419 37.72C207.76 37.9227 208.134 38.024 208.539 38.024C209.019 38.024 209.446 37.8853 209.819 37.608C210.203 37.32 210.475 36.9253 210.635 36.424H211.899C211.718 37.2453 211.318 37.8907 210.699 38.36C210.091 38.8187 209.392 39.048 208.603 39.048C207.952 39.048 207.36 38.904 206.827 38.616C206.294 38.328 205.872 37.9067 205.563 37.352C205.254 36.7867 205.099 36.1147 205.099 35.336C205.099 34.568 205.254 33.9067 205.563 33.352C205.872 32.7867 206.294 32.36 206.827 32.072C207.36 31.7733 207.952 31.624 208.603 31.624ZM219.5 39.88C221.313 38.664 222.764 37.4587 223.852 36.264C224.94 35.0587 225.484 33.9387 225.484 32.904C225.484 32.264 225.319 31.752 224.988 31.368C224.668 30.9733 224.145 30.776 223.42 30.776C222.673 30.776 222.108 31.016 221.724 31.496C221.34 31.9653 221.127 32.616 221.084 33.448H219.644C219.719 32.1893 220.108 31.224 220.812 30.552C221.516 29.8693 222.423 29.528 223.532 29.528C224.588 29.528 225.425 29.8107 226.044 30.376C226.663 30.9413 226.972 31.7413 226.972 32.776C226.972 33.6293 226.695 34.4987 226.14 35.384C225.596 36.2587 224.908 37.0747 224.076 37.832C223.255 38.5787 222.407 39.2133 221.532 39.736H227.26V40.936H219.5V39.88ZM228.818 35.288C228.818 37.1013 229.117 38.5147 229.714 39.528C230.312 40.5413 231.346 41.048 232.818 41.048C234.29 41.048 235.325 40.5413 235.922 39.528C236.53 38.5147 236.834 37.1013 236.834 35.288C236.834 33.496 236.53 32.0933 235.922 31.08C235.325 30.0667 234.29 29.56 232.818 29.56C231.346 29.56 230.312 30.0667 229.714 31.08C229.117 32.0827 228.818 33.4853 228.818 35.288ZM235.394 35.288C235.394 36.216 235.325 36.9947 235.186 37.624C235.058 38.2427 234.808 38.7387 234.434 39.112C234.061 39.4853 233.522 39.672 232.818 39.672C232.125 39.672 231.592 39.4853 231.218 39.112C230.845 38.7387 230.589 38.2427 230.45 37.624C230.322 36.9947 230.258 36.216 230.258 35.288C230.258 34.3707 230.322 33.6027 230.45 32.984C230.589 32.3653 230.845 31.8747 231.218 31.512C231.592 31.1387 232.125 30.952 232.818 30.952C233.522 30.952 234.061 31.1387 234.434 31.512C234.808 31.8747 235.058 32.3653 235.186 32.984C235.325 33.6027 235.394 34.3707 235.394 35.288ZM238.406 39.88C240.22 38.664 241.67 37.4587 242.758 36.264C243.846 35.0587 244.39 33.9387 244.39 32.904C244.39 32.264 244.225 31.752 243.894 31.368C243.574 30.9733 243.052 30.776 242.326 30.776C241.58 30.776 241.014 31.016 240.63 31.496C240.246 31.9653 240.033 32.616 239.99 33.448H238.55C238.625 32.1893 239.014 31.224 239.718 30.552C240.422 29.8693 241.329 29.528 242.438 29.528C243.494 29.528 244.332 29.8107 244.95 30.376C245.569 30.9413 245.878 31.7413 245.878 32.776C245.878 33.6293 245.601 34.4987 245.046 35.384C244.502 36.2587 243.814 37.0747 242.982 37.832C242.161 38.5787 241.313 39.2133 240.438 39.736H246.166V40.936H238.406V39.88ZM247.725 35.288C247.725 37.1013 248.023 38.5147 248.621 39.528C249.218 40.5413 250.253 41.048 251.725 41.048C253.197 41.048 254.231 40.5413 254.829 39.528C255.437 38.5147 255.741 37.1013 255.741 35.288C255.741 33.496 255.437 32.0933 254.829 31.08C254.231 30.0667 253.197 29.56 251.725 29.56C250.253 29.56 249.218 30.0667 248.621 31.08C248.023 32.0827 247.725 33.4853 247.725 35.288ZM254.301 35.288C254.301 36.216 254.231 36.9947 254.093 37.624C253.965 38.2427 253.714 38.7387 253.341 39.112C252.967 39.4853 252.429 39.672 251.725 39.672C251.031 39.672 250.498 39.4853 250.125 39.112C249.751 38.7387 249.495 38.2427 249.357 37.624C249.229 36.9947 249.164 36.216 249.164 35.288C249.164 34.3707 249.229 33.6027 249.357 32.984C249.495 32.3653 249.751 31.8747 250.125 31.512C250.498 31.1387 251.031 30.952 251.725 30.952C252.429 30.952 252.967 31.1387 253.341 31.512C253.714 31.8747 253.965 32.3653 254.093 32.984C254.231 33.6027 254.301 34.3707 254.301 35.288ZM258.881 39.288V41H257.121V39.288H258.881ZM271.104 38.392H266.144L265.2 41H263.632L267.808 29.928H269.456L273.616 41H272.048L271.104 38.392ZM270.688 37.256L268.624 31.56L266.56 37.256H270.688ZM276.546 29.16V41H275.09V29.16H276.546ZM280.343 29.16V41H278.887V29.16H280.343ZM288.093 33.992C288.381 33.384 288.802 32.9147 289.357 32.584C289.911 32.2427 290.573 32.072 291.341 32.072V33.656H290.893C290.071 33.656 289.399 33.8693 288.877 34.296C288.354 34.712 288.093 35.4053 288.093 36.376V41H286.637V32.216H288.093V33.992ZM292.521 29.64C292.521 29.3733 292.612 29.16 292.793 29C292.975 28.8293 293.215 28.744 293.513 28.744C293.812 28.744 294.052 28.8293 294.233 29C294.415 29.16 294.505 29.3733 294.505 29.64C294.505 29.9067 294.415 30.1253 294.233 30.296C294.052 30.456 293.812 30.536 293.513 30.536C293.215 30.536 292.975 30.456 292.793 30.296C292.612 30.1253 292.521 29.9067 292.521 29.64ZM294.233 32.216V41H292.777V32.216H294.233ZM300.174 32.104C301.028 32.104 301.748 32.3173 302.334 32.744C302.932 33.1707 303.348 33.7413 303.582 34.456V32.216H305.038V41.144C305.038 41.9547 304.868 42.6747 304.526 43.304C304.185 43.9333 303.705 44.424 303.086 44.776C302.468 45.128 301.748 45.304 300.926 45.304C299.742 45.304 298.777 45.016 298.03 44.44C297.284 43.8747 296.809 43.1067 296.606 42.136H298.046C298.217 42.7227 298.537 43.1813 299.006 43.512C299.486 43.8533 300.1 44.024 300.846 44.024C301.636 44.024 302.286 43.768 302.798 43.256C303.321 42.7547 303.582 42.0507 303.582 41.144V38.76C303.348 39.4747 302.932 40.0453 302.334 40.472C301.748 40.8987 301.028 41.112 300.174 41.112C299.396 41.112 298.702 40.9307 298.094 40.568C297.486 40.2053 297.006 39.688 296.654 39.016C296.313 38.3333 296.142 37.5333 296.142 36.616C296.142 35.6987 296.313 34.8987 296.654 34.216C297.006 33.5333 297.486 33.0107 298.094 32.648C298.702 32.2853 299.396 32.104 300.174 32.104ZM300.59 33.4C299.694 33.4 298.974 33.688 298.43 34.264C297.897 34.8293 297.63 35.6133 297.63 36.616C297.63 37.6187 297.897 38.408 298.43 38.984C298.974 39.5493 299.694 39.832 300.59 39.832C301.166 39.832 301.678 39.6987 302.126 39.432C302.585 39.1653 302.942 38.792 303.198 38.312C303.454 37.8213 303.582 37.256 303.582 36.616C303.582 35.976 303.454 35.4107 303.198 34.92C302.942 34.4293 302.585 34.056 302.126 33.8C301.678 33.5333 301.166 33.4 300.59 33.4ZM311.98 32.072C313.004 32.072 313.83 32.4027 314.46 33.064C315.089 33.7147 315.404 34.6587 315.404 35.896V41H313.948V36.024C313.948 35.1493 313.724 34.4773 313.276 34.008C312.828 33.5387 312.22 33.304 311.452 33.304C310.652 33.304 310.012 33.5653 309.532 34.088C309.052 34.6 308.812 35.352 308.812 36.344V41H307.356V29.16H308.812V34.296C309.036 33.5813 309.43 33.032 309.996 32.648C310.572 32.264 311.233 32.072 311.98 32.072ZM321.829 39.72V41H320.741C319.845 41 319.173 40.7867 318.725 40.36C318.287 39.9333 318.069 39.2187 318.069 38.216V33.48H316.757V32.216H318.069V30.024H319.541V32.216H321.813V33.48H319.541V38.248C319.541 38.8133 319.642 39.2027 319.845 39.416C320.058 39.6187 320.421 39.72 320.933 39.72H321.829ZM326.358 32.104C327.35 32.104 328.144 32.3653 328.742 32.888C329.35 33.4 329.718 34.0933 329.846 34.968H328.454C328.39 34.4453 328.171 34.0187 327.798 33.688C327.435 33.3467 326.944 33.176 326.326 33.176C325.803 33.176 325.392 33.304 325.094 33.56C324.806 33.8053 324.662 34.1413 324.662 34.568C324.662 34.888 324.758 35.1493 324.95 35.352C325.152 35.544 325.398 35.6933 325.686 35.8C325.984 35.896 326.39 36.0027 326.902 36.12C327.552 36.2693 328.075 36.424 328.47 36.584C328.875 36.7333 329.216 36.9787 329.494 37.32C329.782 37.6613 329.926 38.12 329.926 38.696C329.926 39.4107 329.654 39.992 329.11 40.44C328.576 40.888 327.862 41.112 326.966 41.112C325.92 41.112 325.067 40.8613 324.406 40.36C323.744 39.8587 323.355 39.16 323.238 38.264H324.646C324.699 38.7973 324.928 39.2293 325.334 39.56C325.75 39.8907 326.294 40.056 326.966 40.056C327.467 40.056 327.856 39.928 328.134 39.672C328.422 39.416 328.566 39.08 328.566 38.664C328.566 38.3227 328.464 38.0507 328.262 37.848C328.059 37.6453 327.808 37.4907 327.51 37.384C327.211 37.2773 326.8 37.1653 326.278 37.048C325.627 36.8987 325.104 36.7493 324.71 36.6C324.326 36.4507 323.995 36.216 323.718 35.896C323.451 35.5653 323.318 35.1227 323.318 34.568C323.318 33.832 323.59 33.24 324.134 32.792C324.678 32.3333 325.419 32.104 326.358 32.104ZM337.28 33.992C337.568 33.384 337.99 32.9147 338.544 32.584C339.099 32.2427 339.76 32.072 340.528 32.072V33.656H340.08C339.259 33.656 338.587 33.8693 338.064 34.296C337.542 34.712 337.28 35.4053 337.28 36.376V41H335.824V32.216H337.28V33.992ZM350.045 36.12C350.045 36.4293 350.024 36.696 349.981 36.92H342.957C342.989 37.9227 343.272 38.6747 343.805 39.176C344.349 39.6773 345.01 39.928 345.789 39.928C346.493 39.928 347.08 39.752 347.549 39.4C348.029 39.0373 348.322 38.5573 348.429 37.96H349.981C349.874 38.568 349.634 39.112 349.261 39.592C348.898 40.072 348.424 40.4453 347.837 40.712C347.25 40.9787 346.589 41.112 345.853 41.112C345.01 41.112 344.264 40.9307 343.613 40.568C342.962 40.2053 342.45 39.688 342.077 39.016C341.714 38.3333 341.533 37.5333 341.533 36.616C341.533 35.6987 341.714 34.8987 342.077 34.216C342.45 33.5333 342.962 33.0107 343.613 32.648C344.264 32.2853 345.01 32.104 345.853 32.104C346.706 32.104 347.448 32.2853 348.077 32.648C348.717 33.0107 349.202 33.496 349.533 34.104C349.874 34.712 350.045 35.384 350.045 36.12ZM348.573 36.216C348.605 35.5653 348.498 35.0213 348.253 34.584C348.008 34.1467 347.672 33.8213 347.245 33.608C346.818 33.3947 346.354 33.288 345.853 33.288C345.053 33.288 344.381 33.5387 343.837 34.04C343.293 34.5307 343 35.256 342.957 36.216H348.573ZM354.701 32.104C355.693 32.104 356.488 32.3653 357.085 32.888C357.693 33.4 358.061 34.0933 358.189 34.968H356.797C356.733 34.4453 356.515 34.0187 356.141 33.688C355.779 33.3467 355.288 33.176 354.669 33.176C354.147 33.176 353.736 33.304 353.437 33.56C353.149 33.8053 353.005 34.1413 353.005 34.568C353.005 34.888 353.101 35.1493 353.293 35.352C353.496 35.544 353.741 35.6933 354.029 35.8C354.328 35.896 354.733 36.0027 355.245 36.12C355.896 36.2693 356.419 36.424 356.813 36.584C357.219 36.7333 357.56 36.9787 357.837 37.32C358.125 37.6613 358.269 38.12 358.269 38.696C358.269 39.4107 357.997 39.992 357.453 40.44C356.92 40.888 356.205 41.112 355.309 41.112C354.264 41.112 353.411 40.8613 352.749 40.36C352.088 39.8587 351.699 39.16 351.581 38.264H352.989C353.043 38.7973 353.272 39.2293 353.677 39.56C354.093 39.8907 354.637 40.056 355.309 40.056C355.811 40.056 356.2 39.928 356.477 39.672C356.765 39.416 356.909 39.08 356.909 38.664C356.909 38.3227 356.808 38.0507 356.605 37.848C356.403 37.6453 356.152 37.4907 355.853 37.384C355.555 37.2773 355.144 37.1653 354.621 37.048C353.971 36.8987 353.448 36.7493 353.053 36.6C352.669 36.4507 352.339 36.216 352.061 35.896C351.795 35.5653 351.661 35.1227 351.661 34.568C351.661 33.832 351.933 33.24 352.477 32.792C353.021 32.3333 353.763 32.104 354.701 32.104ZM368.295 36.12C368.295 36.4293 368.274 36.696 368.231 36.92H361.207C361.239 37.9227 361.522 38.6747 362.055 39.176C362.599 39.6773 363.26 39.928 364.039 39.928C364.743 39.928 365.33 39.752 365.799 39.4C366.279 39.0373 366.572 38.5573 366.679 37.96H368.231C368.124 38.568 367.884 39.112 367.511 39.592C367.148 40.072 366.674 40.4453 366.087 40.712C365.5 40.9787 364.839 41.112 364.103 41.112C363.26 41.112 362.514 40.9307 361.863 40.568C361.212 40.2053 360.7 39.688 360.327 39.016C359.964 38.3333 359.783 37.5333 359.783 36.616C359.783 35.6987 359.964 34.8987 360.327 34.216C360.7 33.5333 361.212 33.0107 361.863 32.648C362.514 32.2853 363.26 32.104 364.103 32.104C364.956 32.104 365.698 32.2853 366.327 32.648C366.967 33.0107 367.452 33.496 367.783 34.104C368.124 34.712 368.295 35.384 368.295 36.12ZM366.823 36.216C366.855 35.5653 366.748 35.0213 366.503 34.584C366.258 34.1467 365.922 33.8213 365.495 33.608C365.068 33.3947 364.604 33.288 364.103 33.288C363.303 33.288 362.631 33.5387 362.087 34.04C361.543 34.5307 361.25 35.256 361.207 36.216H366.823ZM371.655 33.992C371.943 33.384 372.365 32.9147 372.919 32.584C373.474 32.2427 374.135 32.072 374.903 32.072V33.656H374.455C373.634 33.656 372.962 33.8693 372.439 34.296C371.917 34.712 371.655 35.4053 371.655 36.376V41H370.199V32.216H371.655V33.992ZM379.748 39.448L382.468 32.216H384.036L380.596 41H378.868L375.428 32.216H376.996L379.748 39.448ZM393.545 36.12C393.545 36.4293 393.524 36.696 393.481 36.92H386.457C386.489 37.9227 386.772 38.6747 387.305 39.176C387.849 39.6773 388.51 39.928 389.289 39.928C389.993 39.928 390.58 39.752 391.049 39.4C391.529 39.0373 391.822 38.5573 391.929 37.96H393.481C393.374 38.568 393.134 39.112 392.761 39.592C392.398 40.072 391.924 40.4453 391.337 40.712C390.75 40.9787 390.089 41.112 389.353 41.112C388.51 41.112 387.764 40.9307 387.113 40.568C386.462 40.2053 385.95 39.688 385.577 39.016C385.214 38.3333 385.033 37.5333 385.033 36.616C385.033 35.6987 385.214 34.8987 385.577 34.216C385.95 33.5333 386.462 33.0107 387.113 32.648C387.764 32.2853 388.51 32.104 389.353 32.104C390.206 32.104 390.948 32.2853 391.577 32.648C392.217 33.0107 392.702 33.496 393.033 34.104C393.374 34.712 393.545 35.384 393.545 36.12ZM392.073 36.216C392.105 35.5653 391.998 35.0213 391.753 34.584C391.508 34.1467 391.172 33.8213 390.745 33.608C390.318 33.3947 389.854 33.288 389.353 33.288C388.553 33.288 387.881 33.5387 387.337 34.04C386.793 34.5307 386.5 35.256 386.457 36.216H392.073ZM399.049 32.104C399.903 32.104 400.623 32.3173 401.209 32.744C401.807 33.1707 402.223 33.7413 402.457 34.456V29.16H403.913V41H402.457V38.76C402.223 39.4747 401.807 40.0453 401.209 40.472C400.623 40.8987 399.903 41.112 399.049 41.112C398.271 41.112 397.577 40.9307 396.969 40.568C396.361 40.2053 395.881 39.688 395.529 39.016C395.188 38.3333 395.017 37.5333 395.017 36.616C395.017 35.6987 395.188 34.8987 395.529 34.216C395.881 33.5333 396.361 33.0107 396.969 32.648C397.577 32.2853 398.271 32.104 399.049 32.104ZM399.465 33.4C398.569 33.4 397.849 33.688 397.305 34.264C396.772 34.8293 396.505 35.6133 396.505 36.616C396.505 37.6187 396.772 38.408 397.305 38.984C397.849 39.5493 398.569 39.832 399.465 39.832C400.041 39.832 400.553 39.6987 401.001 39.432C401.46 39.1653 401.817 38.792 402.073 38.312C402.329 37.8213 402.457 37.256 402.457 36.616C402.457 35.976 402.329 35.4107 402.073 34.92C401.817 34.4293 401.46 34.056 401.001 33.8C400.553 33.5333 400.041 33.4 399.465 33.4ZM407.303 39.288V41H405.543V39.288H407.303Z" fill="#212121" fill-opacity="0.75"/>
</svg>
